<?xml version="1.0" encoding="UTF-8" standalone="no"?>
<svg
   height="16px"
   viewBox="0 0 16 16"
   width="16px"
   version="1.1"
   id="svg1"
   sodipodi:docname="video-display-input-symbolic.svg"
   inkscape:version="1.3.2 (091e20ef0f, 2023-11-25)"
   xmlns:inkscape="http://www.inkscape.org/namespaces/inkscape"
   xmlns:sodipodi="http://sodipodi.sourceforge.net/DTD/sodipodi-0.dtd"
   xmlns="http://www.w3.org/2000/svg"
   xmlns:svg="http://www.w3.org/2000/svg">
  <defs
     id="defs1" />
  <sodipodi:namedview
     id="namedview1"
     pagecolor="#ffffff"
     bordercolor="#000000"
     borderopacity="0.25"
     inkscape:showpageshadow="2"
     inkscape:pageopacity="0.0"
     inkscape:pagecheckerboard="0"
     inkscape:deskcolor="#d1d1d1"
     showguides="true"
     inkscape:zoom="72.75"
     inkscape:cx="7.9793814"
     inkscape:cy="6.8453608"
     inkscape:window-width="2530"
     inkscape:window-height="1373"
     inkscape:window-x="0"
     inkscape:window-y="0"
     inkscape:window-maximized="1"
     inkscape:current-layer="svg1" />
  <path
     id="path1"
     style="opacity:1;fill:#2e3436;fill-opacity:1"
     d="M 10.2,0.55100002 V 2.551 L 13,2.5507812 c 0.554687,-4.33e-5 1,0.4453126 1,1 v 6.9999998 c 0,0.554688 -0.445313,1 -1,1 H 3 c -0.5546874,0 -1,-0.445312 -1,-1 V 3.5507812 c 0,-0.5546874 0.4453126,-1 1,-1 L 5.8,2.551 V 0.55100001 L 3,0.55078125 C 1.3398457,0.55065154 0,1.8906269 0,3.5507812 v 6.9999998 c 0,1.660155 1.3398457,3 3,3 h 10 c 1.660154,0 3,-1.339845 3,-3 V 3.5507812 C 16,1.8906269 14.660154,0.55078125 13,0.55078125 Z M 5,14 c -1.1054679,0 -2,0.894532 -2,2 h 10 c 0,-1.105468 -0.894532,-2 -2,-2 z"
     sodipodi:nodetypes="ccssssssssccsssssssscsccss" />
  <path
     id="rect1"
     style="fill:#2e3436;stroke-width:1.00795"
     d="M 7.0078125,0 V 6.4863281 L 5.5,6.482 8.0429688,8.6054651 10.5,6.482 9.0078125,6.4863281 V 0 Z"
     sodipodi:nodetypes="cccccccc" />
</svg>
